<mxfile host="app.diagrams.net" modified="2021-12-24T06:58:49.214Z" agent="5.0 (X11; Linux x86_64) AppleWebKit/537.36 (KHTML, like Gecko) Chrome/90.0.4430.85 Safari/537.36" etag="FlMuhcxvtaJeQ5sLuMLK" version="16.0.3" type="github" pages="2">
  <diagram id="hZx8prxlAFbmcO8pOgQ3" name="Page-1">
    <mxGraphModel dx="798" dy="1536" grid="1" gridSize="10" guides="1" tooltips="1" connect="1" arrows="1" fold="1" page="1" pageScale="1" pageWidth="850" pageHeight="1100" math="0" shadow="0">
      <root>
        <mxCell id="0" />
        <mxCell id="1" parent="0" />
        <mxCell id="qiKkZnuHFG8k8qks4Bed-2" value="postgres&lt;br&gt;(supabase, managed)" style="rounded=0;whiteSpace=wrap;html=1;" parent="1" vertex="1">
          <mxGeometry x="160" y="-5" width="130" height="60" as="geometry" />
        </mxCell>
        <mxCell id="qiKkZnuHFG8k8qks4Bed-14" value="" style="endArrow=classic;html=1;rounded=0;exitX=0.75;exitY=1;exitDx=0;exitDy=0;entryX=0.25;entryY=0;entryDx=0;entryDy=0;" parent="1" source="qiKkZnuHFG8k8qks4Bed-2" edge="1">
          <mxGeometry width="50" height="50" relative="1" as="geometry">
            <mxPoint x="310" y="220" as="sourcePoint" />
            <mxPoint x="420" y="160" as="targetPoint" />
          </mxGeometry>
        </mxCell>
        <mxCell id="qiKkZnuHFG8k8qks4Bed-19" value="" style="endArrow=classic;html=1;rounded=0;entryX=0.064;entryY=1.043;entryDx=0;entryDy=0;exitX=0.5;exitY=0;exitDx=0;exitDy=0;entryPerimeter=0;" parent="1" target="qiKkZnuHFG8k8qks4Bed-2" edge="1">
          <mxGeometry width="50" height="50" relative="1" as="geometry">
            <mxPoint x="166" y="170" as="sourcePoint" />
            <mxPoint x="270" y="220" as="targetPoint" />
          </mxGeometry>
        </mxCell>
        <mxCell id="qiKkZnuHFG8k8qks4Bed-49" value="insert" style="edgeLabel;html=1;align=center;verticalAlign=middle;resizable=0;points=[];" parent="qiKkZnuHFG8k8qks4Bed-19" vertex="1" connectable="0">
          <mxGeometry x="0.1623" y="2" relative="1" as="geometry">
            <mxPoint as="offset" />
          </mxGeometry>
        </mxCell>
        <mxCell id="qiKkZnuHFG8k8qks4Bed-21" value="" style="swimlane;startSize=0;fillColor=none;" parent="1" vertex="1">
          <mxGeometry x="60" y="170" width="260" height="240" as="geometry" />
        </mxCell>
        <mxCell id="qiKkZnuHFG8k8qks4Bed-1" value="signal-cli" style="rounded=0;whiteSpace=wrap;html=1;" parent="qiKkZnuHFG8k8qks4Bed-21" vertex="1">
          <mxGeometry x="20" y="140" width="110" height="30" as="geometry" />
        </mxCell>
        <mxCell id="qiKkZnuHFG8k8qks4Bed-26" value="forest signal bot framework" style="rounded=0;whiteSpace=wrap;html=1;fillColor=none;" parent="qiKkZnuHFG8k8qks4Bed-21" vertex="1">
          <mxGeometry x="20" y="80" width="110" height="40" as="geometry" />
        </mxCell>
        <mxCell id="qiKkZnuHFG8k8qks4Bed-5" value="redis" style="rounded=0;whiteSpace=wrap;html=1;fillColor=none;" parent="qiKkZnuHFG8k8qks4Bed-21" vertex="1">
          <mxGeometry x="170" y="60" width="70" height="30" as="geometry" />
        </mxCell>
        <mxCell id="qiKkZnuHFG8k8qks4Bed-15" value="" style="endArrow=classic;html=1;rounded=0;entryX=0.5;entryY=1;entryDx=0;entryDy=0;exitX=1;exitY=0.5;exitDx=0;exitDy=0;" parent="qiKkZnuHFG8k8qks4Bed-21" source="qiKkZnuHFG8k8qks4Bed-1" target="qiKkZnuHFG8k8qks4Bed-5" edge="1">
          <mxGeometry width="50" height="50" relative="1" as="geometry">
            <mxPoint x="300" y="85" as="sourcePoint" />
            <mxPoint x="270" y="110" as="targetPoint" />
            <Array as="points">
              <mxPoint x="130" y="120" />
            </Array>
          </mxGeometry>
        </mxCell>
        <mxCell id="qiKkZnuHFG8k8qks4Bed-32" value="attachments" style="edgeLabel;html=1;align=center;verticalAlign=middle;resizable=0;points=[];" parent="qiKkZnuHFG8k8qks4Bed-15" vertex="1" connectable="0">
          <mxGeometry x="0.3681" y="-1" relative="1" as="geometry">
            <mxPoint y="1" as="offset" />
          </mxGeometry>
        </mxCell>
        <mxCell id="qiKkZnuHFG8k8qks4Bed-37" value="gcloud?" style="rounded=0;whiteSpace=wrap;html=1;fillColor=none;" parent="qiKkZnuHFG8k8qks4Bed-21" vertex="1">
          <mxGeometry x="80" y="50" width="50" height="20" as="geometry" />
        </mxCell>
        <mxCell id="qiKkZnuHFG8k8qks4Bed-4" value="awscli" style="rounded=0;whiteSpace=wrap;html=1;fillColor=none;" parent="qiKkZnuHFG8k8qks4Bed-21" vertex="1">
          <mxGeometry x="20" y="50" width="50" height="20" as="geometry" />
        </mxCell>
        <mxCell id="qiKkZnuHFG8k8qks4Bed-44" value="" style="swimlane;startSize=0;fillColor=none;" parent="qiKkZnuHFG8k8qks4Bed-21" vertex="1">
          <mxGeometry x="10" y="30" width="140" height="160" as="geometry" />
        </mxCell>
        <mxCell id="qiKkZnuHFG8k8qks4Bed-45" value="MOB wallet" style="rounded=0;whiteSpace=wrap;html=1;fillColor=none;" parent="qiKkZnuHFG8k8qks4Bed-21" vertex="1">
          <mxGeometry x="165" y="160" width="80" height="30" as="geometry" />
        </mxCell>
        <mxCell id="qiKkZnuHFG8k8qks4Bed-22" value="" style="swimlane;startSize=0;fillColor=none;" parent="1" vertex="1">
          <mxGeometry x="470" width="210" height="180" as="geometry" />
        </mxCell>
        <mxCell id="qiKkZnuHFG8k8qks4Bed-36" value="ffmpeg" style="rounded=0;whiteSpace=wrap;html=1;fillColor=none;" parent="qiKkZnuHFG8k8qks4Bed-22" vertex="1">
          <mxGeometry x="110" y="120" width="60" height="30" as="geometry" />
        </mxCell>
        <mxCell id="qiKkZnuHFG8k8qks4Bed-7" value="psycopg, etc" style="rounded=0;whiteSpace=wrap;html=1;fillColor=none;" parent="qiKkZnuHFG8k8qks4Bed-22" vertex="1">
          <mxGeometry x="55" y="25" width="90" height="40" as="geometry" />
        </mxCell>
        <mxCell id="qiKkZnuHFG8k8qks4Bed-39" value="" style="swimlane;startSize=0;fillColor=none;" parent="qiKkZnuHFG8k8qks4Bed-22" vertex="1">
          <mxGeometry x="-20" y="-30" width="310" height="300" as="geometry" />
        </mxCell>
        <mxCell id="qiKkZnuHFG8k8qks4Bed-41" value="instance group?&lt;br&gt;&lt;br&gt;stackdriver metric?&lt;br&gt;" style="text;html=1;strokeColor=none;fillColor=none;align=center;verticalAlign=middle;whiteSpace=wrap;rounded=0;" parent="qiKkZnuHFG8k8qks4Bed-39" vertex="1">
          <mxGeometry x="75" y="230" width="145" height="30" as="geometry" />
        </mxCell>
        <mxCell id="qiKkZnuHFG8k8qks4Bed-33" value="" style="endArrow=classic;html=1;rounded=0;exitX=1;exitY=0.5;exitDx=0;exitDy=0;entryX=0;entryY=0.5;entryDx=0;entryDy=0;" parent="1" source="qiKkZnuHFG8k8qks4Bed-5" target="qiKkZnuHFG8k8qks4Bed-22" edge="1">
          <mxGeometry width="50" height="50" relative="1" as="geometry">
            <mxPoint x="350" y="310" as="sourcePoint" />
            <mxPoint x="400" y="260" as="targetPoint" />
          </mxGeometry>
        </mxCell>
        <mxCell id="qiKkZnuHFG8k8qks4Bed-35" value="VQGAN/CLIP" style="rounded=0;whiteSpace=wrap;html=1;fillColor=none;" parent="1" vertex="1">
          <mxGeometry x="490" y="90" width="80" height="20" as="geometry" />
        </mxCell>
        <mxCell id="qiKkZnuHFG8k8qks4Bed-38" value="compute instance" style="text;html=1;strokeColor=none;fillColor=none;align=center;verticalAlign=middle;whiteSpace=wrap;rounded=0;" parent="1" vertex="1">
          <mxGeometry x="540" y="-20" width="110" height="20" as="geometry" />
        </mxCell>
        <mxCell id="qiKkZnuHFG8k8qks4Bed-40" value="gcp" style="text;html=1;strokeColor=none;fillColor=none;align=center;verticalAlign=middle;whiteSpace=wrap;rounded=0;" parent="1" vertex="1">
          <mxGeometry x="470" y="100" width="60" height="30" as="geometry" />
        </mxCell>
        <mxCell id="qiKkZnuHFG8k8qks4Bed-43" value="fly" style="text;html=1;strokeColor=none;fillColor=none;align=center;verticalAlign=middle;whiteSpace=wrap;rounded=0;" parent="1" vertex="1">
          <mxGeometry x="100" y="140" width="60" height="30" as="geometry" />
        </mxCell>
        <mxCell id="qiKkZnuHFG8k8qks4Bed-46" value="select for update skip locked" style="text;html=1;strokeColor=none;fillColor=none;align=center;verticalAlign=middle;whiteSpace=wrap;rounded=0;" parent="1" vertex="1">
          <mxGeometry x="330" y="100" width="110" height="30" as="geometry" />
        </mxCell>
        <mxCell id="qiKkZnuHFG8k8qks4Bed-47" value="" style="endArrow=classic;html=1;rounded=0;entryX=1;entryY=0.5;entryDx=0;entryDy=0;exitX=0;exitY=1;exitDx=0;exitDy=0;" parent="1" source="qiKkZnuHFG8k8qks4Bed-40" target="qiKkZnuHFG8k8qks4Bed-2" edge="1">
          <mxGeometry width="50" height="50" relative="1" as="geometry">
            <mxPoint x="340" y="250" as="sourcePoint" />
            <mxPoint x="390" y="200" as="targetPoint" />
          </mxGeometry>
        </mxCell>
        <mxCell id="qiKkZnuHFG8k8qks4Bed-48" value="update status" style="text;html=1;strokeColor=none;fillColor=none;align=center;verticalAlign=middle;whiteSpace=wrap;rounded=0;" parent="1" vertex="1">
          <mxGeometry x="370" y="55" width="60" height="30" as="geometry" />
        </mxCell>
        <mxCell id="qiKkZnuHFG8k8qks4Bed-50" value="" style="endArrow=classic;html=1;rounded=0;exitX=0.5;exitY=1;exitDx=0;exitDy=0;entryX=0.795;entryY=-0.014;entryDx=0;entryDy=0;entryPerimeter=0;" parent="1" source="qiKkZnuHFG8k8qks4Bed-2" target="qiKkZnuHFG8k8qks4Bed-21" edge="1">
          <mxGeometry width="50" height="50" relative="1" as="geometry">
            <mxPoint x="340" y="240" as="sourcePoint" />
            <mxPoint x="390" y="190" as="targetPoint" />
            <Array as="points" />
          </mxGeometry>
        </mxCell>
        <mxCell id="qiKkZnuHFG8k8qks4Bed-51" value="prompt author etc" style="text;html=1;strokeColor=none;fillColor=none;align=center;verticalAlign=middle;whiteSpace=wrap;rounded=0;" parent="1" vertex="1">
          <mxGeometry x="230" y="120" width="60" height="30" as="geometry" />
        </mxCell>
        <mxCell id="qiKkZnuHFG8k8qks4Bed-53" value="" style="endArrow=classic;html=1;rounded=0;entryX=1;entryY=0.75;entryDx=0;entryDy=0;exitX=0;exitY=0.75;exitDx=0;exitDy=0;" parent="1" source="qiKkZnuHFG8k8qks4Bed-22" target="qiKkZnuHFG8k8qks4Bed-44" edge="1">
          <mxGeometry width="50" height="50" relative="1" as="geometry">
            <mxPoint x="340" y="240" as="sourcePoint" />
            <mxPoint x="390" y="190" as="targetPoint" />
          </mxGeometry>
        </mxCell>
        <mxCell id="qiKkZnuHFG8k8qks4Bed-54" value="POST image" style="edgeLabel;html=1;align=center;verticalAlign=middle;resizable=0;points=[];" parent="qiKkZnuHFG8k8qks4Bed-53" vertex="1" connectable="0">
          <mxGeometry x="0.1358" y="2" relative="1" as="geometry">
            <mxPoint as="offset" />
          </mxGeometry>
        </mxCell>
      </root>
    </mxGraphModel>
  </diagram>
  <diagram id="aWJv1XiMmMvNdE38Fi0o" name="proc">
    <mxGraphModel dx="798" dy="436" grid="1" gridSize="10" guides="1" tooltips="1" connect="1" arrows="1" fold="1" page="1" pageScale="1" pageWidth="850" pageHeight="1100" math="0" shadow="0">
      <root>
        <mxCell id="s3OohhnY88nYRU9yMQFt-0" />
        <mxCell id="s3OohhnY88nYRU9yMQFt-1" parent="s3OohhnY88nYRU9yMQFt-0" />
        <mxCell id="TrF3eyV2yV-pWGvx2Ama-23" style="edgeStyle=orthogonalEdgeStyle;rounded=0;orthogonalLoop=1;jettySize=auto;html=1;exitX=0.5;exitY=1;exitDx=0;exitDy=0;entryX=0.497;entryY=0.038;entryDx=0;entryDy=0;entryPerimeter=0;" edge="1" parent="s3OohhnY88nYRU9yMQFt-1" source="TrF3eyV2yV-pWGvx2Ama-0" target="TrF3eyV2yV-pWGvx2Ama-2">
          <mxGeometry relative="1" as="geometry" />
        </mxCell>
        <mxCell id="TrF3eyV2yV-pWGvx2Ama-0" value="signal-cli" style="text;html=1;strokeColor=none;fillColor=none;align=center;verticalAlign=middle;whiteSpace=wrap;rounded=0;" vertex="1" parent="s3OohhnY88nYRU9yMQFt-1">
          <mxGeometry x="110" y="30" width="60" height="30" as="geometry" />
        </mxCell>
        <mxCell id="TrF3eyV2yV-pWGvx2Ama-24" value="" style="edgeStyle=orthogonalEdgeStyle;rounded=0;orthogonalLoop=1;jettySize=auto;html=1;" edge="1" parent="s3OohhnY88nYRU9yMQFt-1" source="TrF3eyV2yV-pWGvx2Ama-2" target="TrF3eyV2yV-pWGvx2Ama-3">
          <mxGeometry relative="1" as="geometry" />
        </mxCell>
        <mxCell id="TrF3eyV2yV-pWGvx2Ama-27" value="" style="edgeStyle=orthogonalEdgeStyle;rounded=0;orthogonalLoop=1;jettySize=auto;html=1;" edge="1" parent="s3OohhnY88nYRU9yMQFt-1" source="TrF3eyV2yV-pWGvx2Ama-2" target="TrF3eyV2yV-pWGvx2Ama-7">
          <mxGeometry relative="1" as="geometry" />
        </mxCell>
        <mxCell id="TrF3eyV2yV-pWGvx2Ama-2" value="imogen-forest" style="text;html=1;align=center;verticalAlign=middle;resizable=0;points=[];autosize=1;strokeColor=none;fillColor=none;" vertex="1" parent="s3OohhnY88nYRU9yMQFt-1">
          <mxGeometry x="95" y="100" width="90" height="20" as="geometry" />
        </mxCell>
        <mxCell id="TrF3eyV2yV-pWGvx2Ama-3" value="insert into prompts" style="text;html=1;strokeColor=none;fillColor=none;align=center;verticalAlign=middle;whiteSpace=wrap;rounded=0;" vertex="1" parent="s3OohhnY88nYRU9yMQFt-1">
          <mxGeometry x="110" y="210" width="60" height="30" as="geometry" />
        </mxCell>
        <mxCell id="TrF3eyV2yV-pWGvx2Ama-4" value="start servers" style="text;html=1;strokeColor=none;fillColor=none;align=center;verticalAlign=middle;whiteSpace=wrap;rounded=0;" vertex="1" parent="s3OohhnY88nYRU9yMQFt-1">
          <mxGeometry x="200" y="180" width="60" height="30" as="geometry" />
        </mxCell>
        <mxCell id="TrF3eyV2yV-pWGvx2Ama-35" style="edgeStyle=orthogonalEdgeStyle;rounded=0;orthogonalLoop=1;jettySize=auto;html=1;exitX=0.5;exitY=1;exitDx=0;exitDy=0;entryX=0.5;entryY=0;entryDx=0;entryDy=0;" edge="1" parent="s3OohhnY88nYRU9yMQFt-1" source="TrF3eyV2yV-pWGvx2Ama-6" target="TrF3eyV2yV-pWGvx2Ama-14">
          <mxGeometry relative="1" as="geometry" />
        </mxCell>
        <mxCell id="TrF3eyV2yV-pWGvx2Ama-6" value="parse model, module video" style="text;html=1;strokeColor=none;fillColor=none;align=center;verticalAlign=middle;whiteSpace=wrap;rounded=0;" vertex="1" parent="s3OohhnY88nYRU9yMQFt-1">
          <mxGeometry x="290" y="260" width="80" height="30" as="geometry" />
        </mxCell>
        <mxCell id="TrF3eyV2yV-pWGvx2Ama-29" style="edgeStyle=orthogonalEdgeStyle;rounded=0;orthogonalLoop=1;jettySize=auto;html=1;exitX=0.75;exitY=1;exitDx=0;exitDy=0;entryX=0.5;entryY=0;entryDx=0;entryDy=0;" edge="1" parent="s3OohhnY88nYRU9yMQFt-1" source="TrF3eyV2yV-pWGvx2Ama-7" target="TrF3eyV2yV-pWGvx2Ama-12">
          <mxGeometry relative="1" as="geometry" />
        </mxCell>
        <mxCell id="TrF3eyV2yV-pWGvx2Ama-7" value="upload attachments to redis" style="text;html=1;strokeColor=none;fillColor=none;align=center;verticalAlign=middle;whiteSpace=wrap;rounded=0;" vertex="1" parent="s3OohhnY88nYRU9yMQFt-1">
          <mxGeometry x="230" y="110" width="60" height="30" as="geometry" />
        </mxCell>
        <mxCell id="TrF3eyV2yV-pWGvx2Ama-11" value="&lt;span&gt;select for update&lt;/span&gt;&lt;br&gt;&lt;span&gt;skip locked set&lt;/span&gt;&lt;br&gt;&lt;span&gt;status=assigned&lt;/span&gt;" style="text;html=1;strokeColor=none;fillColor=none;align=center;verticalAlign=middle;whiteSpace=wrap;rounded=0;" vertex="1" parent="s3OohhnY88nYRU9yMQFt-1">
          <mxGeometry x="80" y="256" width="110" height="30" as="geometry" />
        </mxCell>
        <mxCell id="TrF3eyV2yV-pWGvx2Ama-12" value="download init_image" style="text;html=1;strokeColor=none;fillColor=none;align=center;verticalAlign=middle;whiteSpace=wrap;rounded=0;" vertex="1" parent="s3OohhnY88nYRU9yMQFt-1">
          <mxGeometry x="290" y="210" width="60" height="30" as="geometry" />
        </mxCell>
        <mxCell id="TrF3eyV2yV-pWGvx2Ama-39" value="" style="edgeStyle=orthogonalEdgeStyle;rounded=0;orthogonalLoop=1;jettySize=auto;html=1;" edge="1" parent="s3OohhnY88nYRU9yMQFt-1" source="TrF3eyV2yV-pWGvx2Ama-13" target="TrF3eyV2yV-pWGvx2Ama-15">
          <mxGeometry relative="1" as="geometry" />
        </mxCell>
        <mxCell id="TrF3eyV2yV-pWGvx2Ama-13" value="VQGAN&lt;br&gt;/CLIP" style="text;html=1;strokeColor=none;fillColor=none;align=center;verticalAlign=middle;whiteSpace=wrap;rounded=0;" vertex="1" parent="s3OohhnY88nYRU9yMQFt-1">
          <mxGeometry x="390" y="260" width="60" height="30" as="geometry" />
        </mxCell>
        <mxCell id="TrF3eyV2yV-pWGvx2Ama-36" style="edgeStyle=orthogonalEdgeStyle;rounded=0;orthogonalLoop=1;jettySize=auto;html=1;exitX=1;exitY=0.5;exitDx=0;exitDy=0;entryX=0.5;entryY=1;entryDx=0;entryDy=0;" edge="1" parent="s3OohhnY88nYRU9yMQFt-1" source="TrF3eyV2yV-pWGvx2Ama-14" target="TrF3eyV2yV-pWGvx2Ama-13">
          <mxGeometry relative="1" as="geometry" />
        </mxCell>
        <mxCell id="TrF3eyV2yV-pWGvx2Ama-14" value="load models,&amp;nbsp;" style="text;html=1;strokeColor=none;fillColor=none;align=center;verticalAlign=middle;whiteSpace=wrap;rounded=0;" vertex="1" parent="s3OohhnY88nYRU9yMQFt-1">
          <mxGeometry x="320" y="310" width="80" height="30" as="geometry" />
        </mxCell>
        <mxCell id="TrF3eyV2yV-pWGvx2Ama-40" value="" style="edgeStyle=orthogonalEdgeStyle;rounded=0;orthogonalLoop=1;jettySize=auto;html=1;" edge="1" parent="s3OohhnY88nYRU9yMQFt-1" source="TrF3eyV2yV-pWGvx2Ama-15" target="TrF3eyV2yV-pWGvx2Ama-16">
          <mxGeometry relative="1" as="geometry" />
        </mxCell>
        <mxCell id="TrF3eyV2yV-pWGvx2Ama-15" value="loss, filepath" style="text;html=1;strokeColor=none;fillColor=none;align=center;verticalAlign=middle;whiteSpace=wrap;rounded=0;" vertex="1" parent="s3OohhnY88nYRU9yMQFt-1">
          <mxGeometry x="480" y="256" width="60" height="30" as="geometry" />
        </mxCell>
        <mxCell id="TrF3eyV2yV-pWGvx2Ama-41" value="" style="edgeStyle=orthogonalEdgeStyle;rounded=0;orthogonalLoop=1;jettySize=auto;html=1;" edge="1" parent="s3OohhnY88nYRU9yMQFt-1" source="TrF3eyV2yV-pWGvx2Ama-16" target="TrF3eyV2yV-pWGvx2Ama-19">
          <mxGeometry relative="1" as="geometry" />
        </mxCell>
        <mxCell id="TrF3eyV2yV-pWGvx2Ama-16" value="status=&lt;br&gt;uploading" style="text;html=1;strokeColor=none;fillColor=none;align=center;verticalAlign=middle;whiteSpace=wrap;rounded=0;" vertex="1" parent="s3OohhnY88nYRU9yMQFt-1">
          <mxGeometry x="510" y="180" width="60" height="30" as="geometry" />
        </mxCell>
        <mxCell id="TrF3eyV2yV-pWGvx2Ama-17" value="twitter" style="text;html=1;strokeColor=none;fillColor=none;align=center;verticalAlign=middle;whiteSpace=wrap;rounded=0;" vertex="1" parent="s3OohhnY88nYRU9yMQFt-1">
          <mxGeometry x="510" width="60" height="30" as="geometry" />
        </mxCell>
        <mxCell id="TrF3eyV2yV-pWGvx2Ama-44" value="" style="edgeStyle=orthogonalEdgeStyle;rounded=0;orthogonalLoop=1;jettySize=auto;html=1;" edge="1" parent="s3OohhnY88nYRU9yMQFt-1" source="TrF3eyV2yV-pWGvx2Ama-19" target="TrF3eyV2yV-pWGvx2Ama-17">
          <mxGeometry relative="1" as="geometry" />
        </mxCell>
        <mxCell id="TrF3eyV2yV-pWGvx2Ama-19" value="POST image, id" style="text;html=1;strokeColor=none;fillColor=none;align=center;verticalAlign=middle;whiteSpace=wrap;rounded=0;" vertex="1" parent="s3OohhnY88nYRU9yMQFt-1">
          <mxGeometry x="510" y="110" width="60" height="30" as="geometry" />
        </mxCell>
        <mxCell id="TrF3eyV2yV-pWGvx2Ama-20" value="select group, author, loss..." style="text;html=1;strokeColor=none;fillColor=none;align=center;verticalAlign=middle;whiteSpace=wrap;rounded=0;" vertex="1" parent="s3OohhnY88nYRU9yMQFt-1">
          <mxGeometry x="240" y="30" width="90" height="30" as="geometry" />
        </mxCell>
        <mxCell id="TrF3eyV2yV-pWGvx2Ama-30" value="" style="endArrow=classic;html=1;rounded=0;entryX=0.25;entryY=0;entryDx=0;entryDy=0;" edge="1" parent="s3OohhnY88nYRU9yMQFt-1" source="TrF3eyV2yV-pWGvx2Ama-2" target="TrF3eyV2yV-pWGvx2Ama-4">
          <mxGeometry width="50" height="50" relative="1" as="geometry">
            <mxPoint x="380" y="250" as="sourcePoint" />
            <mxPoint x="430" y="200" as="targetPoint" />
          </mxGeometry>
        </mxCell>
        <mxCell id="TrF3eyV2yV-pWGvx2Ama-32" value="" style="endArrow=classic;html=1;rounded=0;exitX=1;exitY=0.5;exitDx=0;exitDy=0;" edge="1" parent="s3OohhnY88nYRU9yMQFt-1" source="TrF3eyV2yV-pWGvx2Ama-11" target="TrF3eyV2yV-pWGvx2Ama-6">
          <mxGeometry width="50" height="50" relative="1" as="geometry">
            <mxPoint x="200" y="370" as="sourcePoint" />
            <mxPoint x="250" y="320" as="targetPoint" />
          </mxGeometry>
        </mxCell>
        <mxCell id="TrF3eyV2yV-pWGvx2Ama-33" value="" style="endArrow=classic;html=1;rounded=0;exitX=1;exitY=0.25;exitDx=0;exitDy=0;" edge="1" parent="s3OohhnY88nYRU9yMQFt-1" source="TrF3eyV2yV-pWGvx2Ama-6" target="TrF3eyV2yV-pWGvx2Ama-13">
          <mxGeometry width="50" height="50" relative="1" as="geometry">
            <mxPoint x="380" y="250" as="sourcePoint" />
            <mxPoint x="430" y="200" as="targetPoint" />
          </mxGeometry>
        </mxCell>
        <mxCell id="TrF3eyV2yV-pWGvx2Ama-46" value="" style="swimlane;startSize=0;fillColor=none;" vertex="1" parent="s3OohhnY88nYRU9yMQFt-1">
          <mxGeometry y="190" width="180" height="130" as="geometry" />
        </mxCell>
        <mxCell id="TrF3eyV2yV-pWGvx2Ama-21" value="update reaction by sent_ts" style="text;html=1;strokeColor=none;fillColor=none;align=center;verticalAlign=middle;whiteSpace=wrap;rounded=0;" vertex="1" parent="TrF3eyV2yV-pWGvx2Ama-46">
          <mxGeometry x="20" y="10" width="60" height="30" as="geometry" />
        </mxCell>
      </root>
    </mxGraphModel>
  </diagram>
</mxfile>
